<svg width="32" height="32" viewBox="0 0 32 32" xmlns="http://www.w3.org/2000/svg" xmlns:xlink="http://www.w3.org/1999/xlink"><title>icons/social/Linkedin@2x</title><defs><rect id="path-1" width="32" height="32" rx="3"/></defs><g id="Symbols" fill="none" fill-rule="evenodd"><g id="footer"><g id="Group"><g id="icons/social/Linkedin"><g id="Linkedin"><g id="Rectangle-6"><use fill="#FFF" xlink:href="#path-1"/><rect stroke="#FFF" x=".5" y=".5" width="31" height="31" rx="3"/></g><path d="M9.767 11.87c1.1 0 1.994-.814 1.994-1.82 0-1.006-.892-1.82-1.993-1.82-1.103 0-1.996.814-1.996 1.82 0 1.006.894 1.82 1.997 1.82" id="Fill-182" fill="#0976B4"/><path id="Fill-183" fill="#0976B4" d="M8.23 23.578h3.577v-10.32H8.23z"/><path d="M16.83 17.838c0-1.184.56-2.34 1.9-2.34 1.338 0 1.667 1.156 1.667 2.312v5.637h3.563V17.58c0-4.077-2.41-4.78-3.892-4.78-1.48 0-2.298.5-3.238 1.715v-1.39h-3.573v10.322h3.573v-5.61z" id="Fill-184" fill="#0976B4"/></g></g></g></g></g></svg>