<svg width="32" height="32" viewBox="0 0 32 32" xmlns="http://www.w3.org/2000/svg" xmlns:xlink="http://www.w3.org/1999/xlink"><title>Twitter@2x</title><defs><rect id="path-1" width="32" height="32" rx="3"/></defs><g id="Symbols" fill="none" fill-rule="evenodd"><g id="icons/social/twitter"><g id="Twitter"><g id="Rectangle-6"><use fill="#FFF" xlink:href="#path-1"/><rect stroke="#FFF" x=".5" y=".5" width="31" height="31" rx="3"/></g><path d="M23.33 9.88c-.453.29-1.49.71-2 .71a3.207 3.207 0 0 0-5.443 2.93v.002c-2.403-.063-5.03-1.267-6.612-3.328-.972 1.683-.13 3.555.973 4.237-.378.03-1.073-.043-1.4-.362-.022 1.117.515 2.597 2.473 3.134-.376.203-1.044.145-1.334.102.102.942 1.422 2.175 2.866 2.175-.514.595-2.45 1.674-4.623 1.33a9.634 9.634 0 0 0 5.015 1.42c5.173 0 9.19-4.194 8.974-9.366-.002-.006-.002-.012-.002-.018v-.04-.047a5.532 5.532 0 0 0 1.553-1.643c-.26.145-1.046.433-1.777.505.47-.253 1.164-1.082 1.336-1.742" id="Fill-1" fill="#55ACEE"/></g></g></g></svg>